# xmcd
#
# Track frame offsets:
#	150
#	13066
#	25854
#	38491
#	50833
#	63167
#	75315
#	86740
#	99722
#	112263
#
# Disc length: 1637 seconds
#
# Revision: 1
# Processed by: cddbd v1.4PL0 Copyright (c) Steve Scherf et al.
# Submitted via: audiograbber 1.82.01
#
DISCID=7906630a
DTITLE=Hank Snow - Best Of The Best
DYEAR=1998
DGENRE=Country
TTITLE0=I'm Moving On
TTITLE1=I've Been Everywhere
TTITLE2=The Rhumba Boogie
TTITLE3=Married by the Bible, Divorced by The Law
TTITLE4=The Gal Who Invented Kissin'
TTITLE5=Tangled Mind
TTITLE6=Conscience I'm Guilty
TTITLE7=The Golden Rocket
TTITLE8=Marriage Vow
TTITLE9=When Mexican Joe Met Jole Blon
EXTD=
EXTT0=
EXTT1=
EXTT2=
EXTT3=
EXTT4=
EXTT5=
EXTT6=
EXTT7=
EXTT8=
EXTT9=
PLAYORDER=
